<?xml version="1.0" encoding="utf-8"?>
<!-- Generator: Adobe Illustrator 22.0.0, SVG Export Plug-In . SVG Version: 6.00 Build 0)  -->
<svg version="1.1" id="Layer_1" xmlns="http://www.w3.org/2000/svg" xmlns:xlink="http://www.w3.org/1999/xlink" x="0px" y="0px"
	 viewBox="0 0 5500 3700" style="enable-background:new 0 0 5500 3700;" xml:space="preserve">
<style type="text/css">
	.st0{fill:#FCFCFC;}
	.st1{fill:#00A99D;}
</style>
<rect width="5500" height="3700"/>
<g>
	<g>
		<path class="st0" d="M1741.4,2136.2h59.3l-11.5,43.5h31.2c33.6,0,48.2-8.7,54.2-31.6c7.1-26.9-4-31.6-37.6-31.6h-35.2
			c-51.4,0-59.3,0-43.5-59.3h94.5c58.1,0,100.4,18.6,81.1,91c-9.5,36.4-28.9,60.1-54.2,74l9.9,111.9c-51.4,0-62.5,0-67.6-59.3
			l-3.2-36c-4.7,0.4-9.1,0.4-13.8,0.4h-31.2l-24.9,94.9h-59.3L1741.4,2136.2z"/>
		<path class="st0" d="M2104.8,2057.1H2263l-15.8,59.3h-98.5l-41.9,158.2h99.3l-15.8,59.3h-158.2L2104.8,2057.1z M2217.9,2154h11.9
			l-15.8,59.3h-71.2C2158.6,2154,2166.5,2154,2217.9,2154z"/>
		<path class="st0" d="M2359.1,2195.5c26.1-99.3,83.4-138.4,141.6-138.4h70.8l-15.8,59.3h-70.8c-33.6,0-51.4,22.5-66.4,79.1
			c-15,56.6-8.3,79.1,25.3,79.1h77.9l-15.8,59.3h-77.9C2369.8,2333.9,2333,2294.8,2359.1,2195.5z"/>
		<path class="st0" d="M2703.9,2136.2h59.3l-11.5,43.5h31.2c33.6,0,48.2-8.7,54.2-31.6c7.1-26.9-4-31.6-37.6-31.6h-35.2
			c-51.4,0-59.3,0-43.5-59.3h94.5c58.1,0,100.4,18.6,81.1,91c-9.5,36.4-28.9,60.1-54.2,74l9.9,111.9c-51.4,0-62.5,0-67.6-59.3
			l-3.2-36c-4.7,0.4-9.1,0.4-13.8,0.4h-31.2l-24.9,94.9h-59.3L2703.9,2136.2z"/>
		<path class="st0" d="M3010.4,2270.7l56.2-213.5h59.3l-57.3,217.5h71.2l57.3-217.5h59.3l-56.2,213.5c-16.2,60.9-36.4,63.3-72,63.3
			h-79.1C3013.6,2333.9,2994.2,2331.6,3010.4,2270.7z"/>
		<path class="st0" d="M3411,2057.1h59.3l-72.8,276.8h-59.3L3411,2057.1z"/>
		<path class="st0" d="M3664.5,2116.4h-12.3c-51.4,0-59.3,0-43.5-59.3h201.7l-15.8,59.3h-70.8l-57.3,217.5h-59.3L3664.5,2116.4z"/>
	</g>
	<g>
		<path class="st0" d="M2052.6,1366.1h-143.3l-81.3,309.2c-29.5,111.9-53.6,166.3-141,169.4l126.2-478.6H1670l-46.5,176.3
			c-8.4-11.6-18.3-22.3-29.6-32.2c-16-13.9-32.5-24.5-49.5-32.3l29.5-111.9h-143.3l-26.4,100.3c-11.6,2.3-23.2,5.2-34.9,8.7
			c-2.4,0.7-5,1.4-7.7,1.8l29.5-110.8H934.5l-1.2,4.6c-16.8,63.1-22.6,98.7-7.6,118.3c15.4,20,48.7,20,109.3,20h19l-126.2,478.8
			H1071l52-197.1c4.5,5.9,6.7,11.9,6.6,20.2c-0.5,52.7-0.2,105.4-0.2,158.1c0,5.8,0,11.6,0,18.8c46.2,0,92.1,0,137.8,0h269.5h107.6
			c42.6,0,79.3-5.4,112.5-16.6c34.6-11.7,64.4-29.3,91-53.8c53.4-49.2,93.6-127.3,122.8-238.8L2052.6,1366.1z M1328.9,1904.4
			c0,21.9,0,44.3,0,68c-19.3,0-38.5,0-57.6,0c-41.9,0-83.6,0-125.7,0l-0.2-49.1h36.4c2.6,10.2,11.8,17.9,22.8,17.9
			c13,0,23.6-10.6,23.6-23.6c0-13-10.6-23.6-23.6-23.6c-11,0-20.3,7.6-22.8,17.9h-36.5l-0.2-47h36.7c2.6,10.2,11.8,17.9,22.8,17.9
			c13,0,23.6-10.6,23.6-23.6c0-13-10.6-23.6-23.6-23.6c-11,0-20.3,7.6-22.8,17.9H1145l-0.2-50.4c0.4-10-3-16.3-10.4-23.3
			c-2.4-2.2-4.6-4.4-6.8-6.7c-44.7-45.3-63.4-100-48.3-164c15.9-67,58.7-111.8,125.8-126.7c52.9-11.8,104.9-11.3,151.2,14.1
			c11.6,6.4,22.8,14.3,33.7,24c0.5,0.4,0.9,0.8,1.4,1.2c35.5,32.5,56.2,73.5,54.9,121.2c-1,37.9,10.6,70.1,26.6,102.7
			c0.2,0.4,0.4,0.9,0.6,1.3c13.5,27.4,14.2,31.1-8.9,33.7c-3.3,0.4-7,0.7-11.3,1.1c-1.5,0.1-3,1-5.9,2c0,26.5,0,53.3,0,80.1
			c0,29.6-8.7,38.2-38.6,38.3c-25.3,0.1-50.6,0.2-75.8,0.4C1331.9,1902.7,1331,1903.4,1328.9,1904.4z M1192.4,1917.7
			c0-6.7,5.5-12.2,12.2-12.2s12.2,5.5,12.2,12.2c0,6.7-5.5,12.2-12.2,12.2S1192.4,1924.4,1192.4,1917.7z M1192.4,1859.3
			c0-6.7,5.5-12.2,12.2-12.2s12.2,5.5,12.2,12.2c0,6.7-5.5,12.2-12.2,12.2S1192.4,1866,1192.4,1859.3z M1647.4,1781.9
			c-1.5,0.1-3.1,0.8-6.9,1.9c0,25.1,0,50.7,0,76.3c0,35.4-6.9,42.2-42.6,42.2c-24.6,0-49.3,0-75.8,0c0,24.1,0,46.9,0,70.6
			c-60.2,0-118.6,0-178,0c0-18.5,0-36.4,0-56.2c24,0,47,0.1,70,0c32-0.2,47.4-15.6,47.6-47.5c0-8.1,0.1-16.2,0.1-24.2
			c0-15.4,0-30.7,0-45.7c2.4-1.2,3.3-2.2,4.2-2.1c30.3,3.3,42.8-16.9,27-43.9c-3.8-6.5-6-13.8-9.6-20.4c-1.4-2.6-2.7-5.2-4-7.8
			c-12.9-26.4-18.7-53.8-18.5-84.4c0.3-55.6-24.8-100.6-66.6-135.9c-1.6-1.4-3.3-2.7-4.9-4.1c-3.7-3-7.5-6-11.3-9
			c-0.3-0.2-0.2-0.9-0.9-4c7.7-1.9,15.4-4.3,23.2-6.2c4.4-1.1,8.8-1.9,13.3-2.4c44.4-4.8,87.8-4.5,127.1,13.2
			c14,6.3,27.4,14.8,40.2,26c15.1,13.2,27.8,27.9,37.5,43.9c14.2,23.4,21.9,49.7,21,78.8c-1.2,39.7,11.3,73.3,27.9,107.3
			C1682.3,1779.1,1681.7,1779.4,1647.4,1781.9z"/>
		<polygon class="st0" points="2114.8,1366.1 1951.4,1987.6 2094.6,1987.6 2258,1366.1 		"/>
		<path class="st0" d="M2531.5,1711.7l-82.5-345.6h-122.7l-163.4,621.6h143.2l80.6-306l60.2,226.5c10,38.2,18.6,58.2,40.2,68.8
			c20.8,10.2,52.1,10.6,110.2,10.6h4.7l163.4-621.6h-143.3L2531.5,1711.7z"/>
		<path class="st1" d="M3253,1366.1h-456.6l-1.2,4.6c-16.8,63.1-22.6,98.7-7.6,118.3c15.4,20,48.7,20,109.3,20h19l-126.2,478.8
			h143.3l126.2-478.8h155.8L3253,1366.1z"/>
		<polygon class="st1" points="3398.6,1508.9 3615.3,1508.9 3653.4,1366.1 3292.5,1366.1 3129.1,1987.6 3490,1987.6 3528.1,1844.8 
			3309.6,1844.8 		"/>
		<path class="st1" d="M3546.2,1579.3c-56.9,0-91.2,0-115.6,17.5c-25.4,18.1-38.7,53.8-55.7,117.7l-2.1,7.7h169.4l38.1-142.8H3546.2
			z"/>
		<path class="st1" d="M3728.2,1825c-17.7-23-16.3-69.5,4.1-146.6c32.8-123.6,70.9-169.5,140.3-169.5h160.5l38.1-142.8h-163.8
			c-69.2,0-133.6,24.9-186.3,72c-59.7,53.3-103.8,133.1-131.2,237.3c-30.2,114.7-24.6,199.9,16.6,253.3
			c29.8,38.6,78.5,59.1,140.8,59.1h176.2l38.1-142.8h-179.5C3756,1844.8,3738.4,1838.3,3728.2,1825z"/>
		<polygon class="st1" points="4135.1,1366.1 3971.7,1987.6 4114.9,1987.6 4278.3,1366.1 		"/>
		<path class="st1" d="M4439.7,1366.1l-55.7,213.3c-54,0-87.1,0.5-110.9,17.5c-25.4,18.1-38.7,53.8-55.7,117.7l-2.1,7.7h131.5
			l-33.6,127.2c-16.8,63.1-22.6,98.7-7.6,118.3c15.4,20,48.7,20,109.3,20h4.7l163.4-621.6H4439.7z"/>
		<path class="st0" d="M1591.6,1663.5c-1.9-0.6-4-0.9-6.1-0.9c-12.2,0-22.2,9.9-22.2,22.2c0,10.4,7.3,19.2,17,21.5
			c1.7,0.4,3.4,0.6,5.2,0.6c12.2,0,22.2-9.9,22.2-22.2C1607.6,1674.7,1600.8,1666.2,1591.6,1663.5z M1585.5,1695.3
			c-0.8,0-1.5-0.1-2.2-0.2c-4.7-1-8.3-5.2-8.3-10.3c0-5.8,4.7-10.5,10.5-10.5c1.1,0,2.2,0.2,3.1,0.5c4.3,1.3,7.3,5.3,7.3,10
			C1595.9,1690.6,1591.2,1695.3,1585.5,1695.3z"/>
		<path class="st0" d="M1365.7,1677.9c2.3,5.6,2.9,11.8,5.7,13.1c10.9,4.9,22.5,8.3,34.5,12.4c0.2-2.8,0.6-5.9,0.7-8.9
			c0.1-5.2,0-10.5,0-16.6C1392.9,1677.9,1380.4,1677.9,1365.7,1677.9z"/>
		<path class="st0" d="M1236.7,1542.5c-19.4,0-37.4,5.8-52.5,15.8c-26,17.1-43.2,46.6-43.2,80c0,15.7,3.8,30.6,10.6,43.7
			c15.9,30.9,48.1,52,85.1,52c52.8,0,95.7-42.9,95.7-95.7C1332.4,1585.4,1289.5,1542.5,1236.7,1542.5z M1230,1720.2
			c-34.9-2.8-63.6-27.5-72.6-60.2c-1.3-4.9-2.2-9.9-2.7-15.1h6.6h20.3c3.1,25.2,23.1,45.3,48.3,48.3V1720.2z M1230,1679.7
			c-17.8-2.9-31.9-17-34.8-34.8h34.8V1679.7z M1230,1631.5h-34.8c2.9-17.8,17-31.9,34.8-34.7V1631.5z M1230,1583.2
			c-25.2,3.1-45.2,23.1-48.3,48.3h-16.8h-10.2c1.6-19.9,10.4-37.8,23.7-51.2c13.4-13.5,31.5-22.4,51.6-24V1583.2z M1243.4,1596.7
			c17.8,2.9,31.9,17,34.8,34.7h-34.8V1596.7z M1243.4,1644.9h34.8c-2.9,17.8-17,31.9-34.8,34.8V1644.9z M1243.4,1720.2v-27
			c25.2-3.1,45.3-23.1,48.3-48.3h27C1315.5,1684.9,1283.5,1716.9,1243.4,1720.2z M1291.8,1631.5c-3.1-25.2-23.1-45.2-48.3-48.3v-27
			c40,3.2,72,35.2,75.3,75.3H1291.8z"/>
	</g>
</g>
</svg>
