<svg xmlns="http://www.w3.org/2000/svg" width="55" height="53" fill="none"><path fill="#3758F9" fill-rule="evenodd" d="M12.512 3.1a1.55 1.55 0 1 0 0-3.1 1.55 1.55 0 0 0 0 3.1ZM22.504 3.1a1.55 1.55 0 1 0 0-3.1 1.55 1.55 0 0 0 0 3.1ZM32.496 3.1a1.55 1.55 0 1 0 0-3.1 1.55 1.55 0 0 0 0 3.1ZM42.487 3.1a1.55 1.55 0 1 0 0-3.1 1.55 1.55 0 0 0 0 3.1ZM52.48 3.1a1.55 1.55 0 1 0 0-3.1 1.55 1.55 0 0 0 0 3.1ZM2.52 13.08a1.55 1.55 0 1 0 0-3.1 1.55 1.55 0 0 0 0 3.1ZM12.512 13.08a1.55 1.55 0 1 0 0-3.1 1.55 1.55 0 0 0 0 3.1ZM22.504 13.08a1.55 1.55 0 1 0 0-3.1 1.55 1.55 0 0 0 0 3.1ZM32.496 13.08a1.55 1.55 0 1 0 0-3.1 1.55 1.55 0 0 0 0 3.1ZM42.487 13.08a1.55 1.55 0 1 0 0-3.1 1.55 1.55 0 0 0 0 3.1ZM52.48 13.08a1.55 1.55 0 1 0 0-3.1 1.55 1.55 0 0 0 0 3.1ZM2.52 23.06a1.55 1.55 0 1 0 0-3.1 1.55 1.55 0 0 0 0 3.1ZM12.512 23.06a1.55 1.55 0 1 0 0-3.1 1.55 1.55 0 0 0 0 3.1ZM22.504 23.06a1.55 1.55 0 1 0 0-3.1 1.55 1.55 0 0 0 0 3.1ZM32.496 23.06a1.55 1.55 0 1 0 0-3.1 1.55 1.55 0 0 0 0 3.1ZM42.487 23.06a1.55 1.55 0 1 0 0-3.1 1.55 1.55 0 0 0 0 3.1ZM52.48 23.06a1.55 1.55 0 1 0 0-3.1 1.55 1.55 0 0 0 0 3.1ZM2.52 33.04a1.55 1.55 0 1 0 0-3.1 1.55 1.55 0 0 0 0 3.1ZM12.512 33.04a1.55 1.55 0 1 0 0-3.1 1.55 1.55 0 0 0 0 3.1ZM22.504 33.04a1.55 1.55 0 1 0 0-3.1 1.55 1.55 0 0 0 0 3.1ZM32.496 33.04a1.55 1.55 0 1 0 0-3.1 1.55 1.55 0 0 0 0 3.1ZM42.487 33.04a1.55 1.55 0 1 0 0-3.1 1.55 1.55 0 0 0 0 3.1ZM52.48 33.04a1.55 1.55 0 1 0 0-3.1 1.55 1.55 0 0 0 0 3.1ZM2.52 43.02a1.55 1.55 0 1 0 0-3.1 1.55 1.55 0 0 0 0 3.1ZM12.512 43.02a1.55 1.55 0 1 0 0-3.1 1.55 1.55 0 0 0 0 3.1ZM22.504 43.02a1.55 1.55 0 1 0 0-3.1 1.55 1.55 0 0 0 0 3.1ZM32.496 43.02a1.55 1.55 0 1 0 0-3.1 1.55 1.55 0 0 0 0 3.1ZM42.487 43.02a1.55 1.55 0 1 0 0-3.1 1.55 1.55 0 0 0 0 3.1ZM52.48 43.02a1.55 1.55 0 1 0 0-3.1 1.55 1.55 0 0 0 0 3.1ZM2.52 53a1.55 1.55 0 1 0 0-3.1 1.55 1.55 0 0 0 0 3.1ZM12.512 53a1.55 1.55 0 1 0 0-3.1 1.55 1.55 0 0 0 0 3.1ZM22.504 53a1.55 1.55 0 1 0 0-3.1 1.55 1.55 0 0 0 0 3.1ZM32.496 53a1.55 1.55 0 1 0 0-3.1 1.55 1.55 0 0 0 0 3.1ZM42.487 53a1.55 1.55 0 1 0 0-3.1 1.55 1.55 0 0 0 0 3.1ZM52.48 53a1.55 1.55 0 1 0 0-3.1 1.55 1.55 0 0 0 0 3.1Z" clip-rule="evenodd"/></svg>