<svg xmlns="http://www.w3.org/2000/svg" width="102" height="102" fill="none"><path fill="#fff" fill-opacity=".08" d="M1.867 33.196a1.867 1.867 0 1 1-.001 3.734 1.867 1.867 0 0 1 0-3.734ZM18.294 33.196a1.867 1.867 0 1 1-.001 3.734 1.867 1.867 0 0 1 0-3.734ZM34.72 33.195a1.867 1.867 0 1 1 0 3.734 1.867 1.867 0 0 1 0-3.734ZM50.934 33.195a1.867 1.867 0 1 1 0 3.734 1.867 1.867 0 0 1 0-3.734ZM1.867 16.76a1.867 1.867 0 1 1-.001 3.735 1.867 1.867 0 0 1 0-3.735ZM18.294 16.76a1.867 1.867 0 1 1 0 3.735 1.867 1.867 0 0 1 0-3.735ZM34.72 16.76a1.867 1.867 0 1 1 0 3.735 1.867 1.867 0 0 1 0-3.735ZM50.934 16.76a1.867 1.867 0 1 1 0 3.735 1.867 1.867 0 0 1 0-3.735ZM1.867.325a1.867 1.867 0 1 1-.001 3.734 1.867 1.867 0 0 1 0-3.734ZM18.294.325a1.867 1.867 0 1 1-.001 3.734 1.867 1.867 0 0 1 0-3.734ZM34.72.325a1.867 1.867 0 1 1 0 3.735 1.867 1.867 0 0 1 0-3.735ZM50.934.325a1.867 1.867 0 1 1 0 3.735 1.867 1.867 0 0 1 0-3.735ZM66.904 33.196a1.867 1.867 0 1 1-.001 3.734 1.867 1.867 0 0 1 0-3.734ZM83.33 33.196a1.867 1.867 0 1 1 0 3.734 1.867 1.867 0 0 1 0-3.734ZM99.758 33.196a1.867 1.867 0 1 1 0 3.733 1.867 1.867 0 0 1 0-3.733ZM66.904 16.76a1.867 1.867 0 1 1-.001 3.735 1.867 1.867 0 0 1 0-3.735ZM83.33 16.76a1.867 1.867 0 1 1 0 3.735 1.867 1.867 0 0 1 0-3.735ZM99.758 16.76a1.867 1.867 0 1 1 0 3.734 1.867 1.867 0 0 1 0-3.733ZM66.904.325a1.867 1.867 0 1 1-.001 3.734 1.867 1.867 0 0 1 0-3.734ZM83.33.325a1.867 1.867 0 1 1 0 3.734 1.867 1.867 0 0 1 0-3.734ZM99.758.325a1.867 1.867 0 1 1 0 3.733 1.867 1.867 0 0 1 0-3.733ZM1.867 82.203a1.867 1.867 0 1 1-.001 3.734 1.867 1.867 0 0 1 0-3.734ZM18.294 82.203a1.867 1.867 0 1 1 0 3.734 1.867 1.867 0 0 1 0-3.734ZM34.72 82.203a1.867 1.867 0 1 1 0 3.734 1.867 1.867 0 0 1 0-3.734ZM50.934 82.203a1.867 1.867 0 1 1 0 3.734 1.867 1.867 0 0 1 0-3.734ZM1.867 65.768a1.867 1.867 0 1 1-.001 3.734 1.867 1.867 0 0 1 0-3.734ZM18.294 65.768a1.867 1.867 0 1 1-.001 3.734 1.867 1.867 0 0 1 0-3.734ZM34.72 65.767a1.867 1.867 0 1 1 0 3.735 1.867 1.867 0 0 1 0-3.735ZM50.934 65.767a1.867 1.867 0 1 1 0 3.735 1.867 1.867 0 0 1 0-3.735ZM1.867 98.264A1.867 1.867 0 1 1 1.866 102a1.867 1.867 0 0 1 0-3.735ZM1.867 49.332a1.867 1.867 0 1 1-.001 3.735 1.867 1.867 0 0 1 0-3.735ZM18.294 98.264a1.867 1.867 0 1 1 0 3.735 1.867 1.867 0 0 1 0-3.735ZM18.294 49.332a1.867 1.867 0 1 1-.001 3.734 1.867 1.867 0 0 1 0-3.734ZM34.72 98.265a1.867 1.867 0 1 1 0 3.734 1.867 1.867 0 0 1 0-3.734ZM50.934 98.265a1.867 1.867 0 1 1 0 3.734 1.867 1.867 0 0 1 0-3.734ZM34.72 49.333a1.867 1.867 0 1 1 0 3.734 1.867 1.867 0 0 1 0-3.734ZM50.934 49.333a1.867 1.867 0 1 1 0 3.734 1.867 1.867 0 0 1 0-3.734ZM66.904 82.203a1.867 1.867 0 1 1-.001 3.734 1.867 1.867 0 0 1 0-3.734ZM83.33 82.203a1.867 1.867 0 1 1 0 3.734 1.867 1.867 0 0 1 0-3.734ZM99.758 82.203a1.867 1.867 0 1 1 0 3.737 1.867 1.867 0 0 1 0-3.737ZM66.904 65.767a1.867 1.867 0 1 1-.001 3.735 1.867 1.867 0 0 1 0-3.735ZM83.33 65.768a1.867 1.867 0 1 1 0 3.734 1.867 1.867 0 0 1 0-3.734ZM99.758 65.768a1.867 1.867 0 1 1 0 3.733 1.867 1.867 0 0 1 0-3.733ZM66.904 98.264a1.867 1.867 0 1 1-.001 3.735 1.867 1.867 0 0 1 0-3.735ZM66.904 49.332a1.867 1.867 0 1 1-.001 3.735 1.867 1.867 0 0 1 0-3.735ZM83.33 98.264a1.867 1.867 0 1 1 0 3.735 1.867 1.867 0 0 1 0-3.735ZM83.33 49.332a1.867 1.867 0 1 1 0 3.735 1.867 1.867 0 0 1 0-3.735ZM99.758 98.264a1.867 1.867 0 1 1-.002 3.737 1.867 1.867 0 0 1 .002-3.737ZM99.758 49.332a1.867 1.867 0 1 1 0 3.733 1.867 1.867 0 0 1 0-3.733Z"/></svg>