<svg xmlns="http://www.w3.org/2000/svg" width="48" height="134" fill="none"><circle cx="45.667" cy="132" r="1.667" fill="#13C296" transform="rotate(180 45.667 132)"/><circle cx="45.667" cy="117.333" r="1.667" fill="#13C296" transform="rotate(180 45.667 117.333)"/><circle cx="45.667" cy="102.667" r="1.667" fill="#13C296" transform="rotate(180 45.667 102.667)"/><circle cx="45.667" cy="88" r="1.667" fill="#13C296" transform="rotate(180 45.667 88)"/><circle cx="45.667" cy="73.334" r="1.667" fill="#13C296" transform="rotate(180 45.667 73.334)"/><circle cx="45.667" cy="45" r="1.667" fill="#13C296" transform="rotate(180 45.667 45)"/><circle cx="45.667" cy="16" r="1.667" fill="#13C296" transform="rotate(180 45.667 16)"/><circle cx="45.667" cy="59" r="1.667" fill="#13C296" transform="rotate(180 45.667 59)"/><circle cx="45.667" cy="30.667" r="1.667" fill="#13C296" transform="rotate(180 45.667 30.667)"/><circle cx="45.667" cy="1.667" r="1.667" fill="#13C296" transform="rotate(180 45.667 1.667)"/><circle cx="31.001" cy="132" r="1.667" fill="#13C296" transform="rotate(180 31.001 132)"/><circle cx="31.001" cy="117.333" r="1.667" fill="#13C296" transform="rotate(180 31.001 117.333)"/><circle cx="31.001" cy="102.667" r="1.667" fill="#13C296" transform="rotate(180 31.001 102.667)"/><circle cx="31.001" cy="88" r="1.667" fill="#13C296" transform="rotate(180 31.001 88)"/><circle cx="31.001" cy="73.334" r="1.667" fill="#13C296" transform="rotate(180 31.001 73.334)"/><circle cx="31.001" cy="45" r="1.667" fill="#13C296" transform="rotate(180 31.001 45)"/><circle cx="31.001" cy="16" r="1.667" fill="#13C296" transform="rotate(180 31.001 16)"/><circle cx="31.001" cy="59" r="1.667" fill="#13C296" transform="rotate(180 31.001 59)"/><circle cx="31.001" cy="30.667" r="1.667" fill="#13C296" transform="rotate(180 31.001 30.667)"/><circle cx="31.001" cy="1.667" r="1.667" fill="#13C296" transform="rotate(180 31.001 1.667)"/><circle cx="16.333" cy="132" r="1.667" fill="#13C296" transform="rotate(180 16.333 132)"/><circle cx="16.333" cy="117.333" r="1.667" fill="#13C296" transform="rotate(180 16.333 117.333)"/><circle cx="16.333" cy="102.667" r="1.667" fill="#13C296" transform="rotate(180 16.333 102.667)"/><circle cx="16.333" cy="88" r="1.667" fill="#13C296" transform="rotate(180 16.333 88)"/><circle cx="16.333" cy="73.334" r="1.667" fill="#13C296" transform="rotate(180 16.333 73.334)"/><circle cx="16.333" cy="45" r="1.667" fill="#13C296" transform="rotate(180 16.333 45)"/><circle cx="16.333" cy="16" r="1.667" fill="#13C296" transform="rotate(180 16.333 16)"/><circle cx="16.333" cy="59" r="1.667" fill="#13C296" transform="rotate(180 16.333 59)"/><circle cx="16.333" cy="30.667" r="1.667" fill="#13C296" transform="rotate(180 16.333 30.667)"/><circle cx="16.333" cy="1.667" r="1.667" fill="#13C296" transform="rotate(180 16.333 1.667)"/><circle cx="1.667" cy="132" r="1.667" fill="#13C296" transform="rotate(180 1.667 132)"/><circle cx="1.667" cy="117.333" r="1.667" fill="#13C296" transform="rotate(180 1.667 117.333)"/><circle cx="1.667" cy="102.667" r="1.667" fill="#13C296" transform="rotate(180 1.667 102.667)"/><circle cx="1.667" cy="88" r="1.667" fill="#13C296" transform="rotate(180 1.667 88)"/><circle cx="1.667" cy="73.334" r="1.667" fill="#13C296" transform="rotate(180 1.667 73.334)"/><circle cx="1.667" cy="45" r="1.667" fill="#13C296" transform="rotate(180 1.667 45)"/><circle cx="1.667" cy="16" r="1.667" fill="#13C296" transform="rotate(180 1.667 16)"/><circle cx="1.667" cy="59" r="1.667" fill="#13C296" transform="rotate(180 1.667 59)"/><circle cx="1.667" cy="30.667" r="1.667" fill="#13C296" transform="rotate(180 1.667 30.667)"/><circle cx="1.667" cy="1.667" r="1.667" fill="#13C296" transform="rotate(180 1.667 1.667)"/></svg>