<svg xmlns="http://www.w3.org/2000/svg" width="327" height="132" fill="none"><mask id="a" width="312" height="107" x="4" y="22" fill="#000" maskUnits="userSpaceOnUse"><path fill="#fff" d="M4 22h312v107H4z"/><path d="M80.469 65c0 8.724-1.654 16.146-4.961 22.266-3.281 6.12-7.76 10.794-13.438 14.023-5.65 3.203-12.005 4.805-19.062 4.805-7.11 0-13.49-1.615-19.14-4.844-5.652-3.23-10.118-7.904-13.4-14.023-3.28-6.12-4.921-13.53-4.921-22.227 0-8.724 1.64-16.146 4.922-22.266 3.281-6.12 7.747-10.78 13.398-13.984 5.651-3.23 12.031-4.844 19.14-4.844 7.058 0 13.412 1.615 19.063 4.844 5.677 3.203 10.157 7.865 13.438 13.984 3.307 6.12 4.96 13.542 4.96 22.266ZM63.32 65c0-5.651-.846-10.417-2.539-14.297-1.666-3.88-4.023-6.823-7.07-8.828-3.047-2.005-6.615-3.008-10.703-3.008-4.089 0-7.656 1.003-10.703 3.008-3.047 2.005-5.417 4.948-7.11 8.828-1.666 3.88-2.5 8.646-2.5 14.297s.834 10.417 2.5 14.297c1.693 3.88 4.063 6.823 7.11 8.828 3.047 2.005 6.614 3.008 10.703 3.008 4.088 0 7.656-1.003 10.703-3.008 3.047-2.005 5.404-4.948 7.07-8.828 1.693-3.88 2.54-8.646 2.54-14.297Zm29.366 62.5V45h16.406v10.078h.742c.729-1.614 1.784-3.255 3.164-4.922 1.406-1.692 3.229-3.099 5.469-4.218 2.265-1.146 5.078-1.72 8.437-1.72 4.375 0 8.412 1.147 12.11 3.438 3.698 2.266 6.653 5.69 8.867 10.274 2.213 4.557 3.32 10.273 3.32 17.148 0 6.693-1.081 12.344-3.242 16.953-2.135 4.584-5.052 8.06-8.75 10.43-3.672 2.344-7.786 3.516-12.344 3.516-3.229 0-5.976-.534-8.242-1.602-2.24-1.068-4.075-2.409-5.508-4.023-1.432-1.641-2.526-3.295-3.281-4.961h-.508V127.5h-16.64ZM108.975 75c0 3.568.494 6.68 1.484 9.336.99 2.656 2.422 4.727 4.297 6.21 1.875 1.46 4.154 2.188 6.836 2.188 2.708 0 5-.742 6.875-2.226 1.875-1.51 3.294-3.594 4.258-6.25.989-2.682 1.484-5.768 1.484-9.258 0-3.463-.482-6.51-1.445-9.14-.964-2.63-2.383-4.688-4.258-6.172-1.875-1.485-4.18-2.227-6.914-2.227-2.709 0-5 .716-6.875 2.148-1.849 1.433-3.268 3.464-4.258 6.094-.99 2.63-1.484 5.73-1.484 9.297Zm53.32 52.5V45h16.406v10.078h.742c.73-1.614 1.784-3.255 3.164-4.922 1.407-1.692 3.23-3.099 5.469-4.218 2.266-1.146 5.078-1.72 8.438-1.72 4.375 0 8.411 1.147 12.109 3.438 3.698 2.266 6.654 5.69 8.867 10.274 2.214 4.557 3.321 10.273 3.321 17.148 0 6.693-1.081 12.344-3.243 16.953-2.135 4.584-5.052 8.06-8.75 10.43-3.672 2.344-7.786 3.516-12.343 3.516-3.23 0-5.977-.534-8.243-1.602-2.239-1.068-4.075-2.409-5.507-4.023-1.433-1.641-2.526-3.295-3.282-4.961h-.507V127.5h-16.641ZM178.584 75c0 3.568.495 6.68 1.484 9.336.99 2.656 2.422 4.727 4.297 6.21 1.875 1.46 4.154 2.188 6.836 2.188 2.709 0 5-.742 6.875-2.226 1.875-1.51 3.294-3.594 4.258-6.25.99-2.682 1.484-5.768 1.484-9.258 0-3.463-.481-6.51-1.445-9.14-.963-2.63-2.383-4.688-4.258-6.172-1.875-1.485-4.179-2.227-6.914-2.227-2.708 0-5 .716-6.875 2.148-1.849 1.433-3.268 3.464-4.258 6.094-.989 2.63-1.484 5.73-1.484 9.297Zm103.242-12.89-15.234.937a7.886 7.886 0 0 0-1.68-3.516c-.859-1.067-1.992-1.914-3.398-2.539-1.381-.65-3.034-.976-4.961-.976-2.578 0-4.753.547-6.524 1.64-1.771 1.068-2.656 2.5-2.656 4.297 0 1.432.573 2.643 1.719 3.633 1.146.99 3.112 1.784 5.898 2.383l10.86 2.187c5.833 1.198 10.182 3.125 13.046 5.781 2.865 2.657 4.297 6.146 4.297 10.47 0 3.931-1.158 7.382-3.476 10.35-2.292 2.97-5.443 5.287-9.453 6.954-3.985 1.641-8.581 2.461-13.789 2.461-7.943 0-14.271-1.654-18.985-4.961-4.687-3.333-7.435-7.865-8.242-13.594l16.367-.86c.495 2.423 1.693 4.272 3.594 5.548 1.901 1.25 4.336 1.875 7.305 1.875 2.916 0 5.26-.56 7.031-1.68 1.797-1.146 2.708-2.617 2.734-4.414-.026-1.51-.664-2.748-1.914-3.711-1.25-.99-3.177-1.745-5.781-2.266l-10.391-2.07c-5.859-1.172-10.221-3.203-13.086-6.094-2.838-2.89-4.257-6.575-4.257-11.054 0-3.855 1.041-7.175 3.125-9.961 2.109-2.787 5.065-4.935 8.867-6.446 3.828-1.51 8.307-2.265 13.437-2.265 7.578 0 13.542 1.601 17.891 4.804 4.375 3.204 6.927 7.566 7.656 13.086ZM313.555 25l-1.524 56.016h-14.297L296.172 25h17.383Zm-8.672 81.016c-2.578 0-4.792-.912-6.641-2.735-1.849-1.849-2.76-4.062-2.734-6.64-.026-2.553.885-4.74 2.734-6.563 1.849-1.823 4.063-2.734 6.641-2.734 2.474 0 4.648.911 6.523 2.734s2.826 4.01 2.852 6.563c-.026 1.718-.482 3.294-1.367 4.726a10.12 10.12 0 0 1-3.399 3.399 8.88 8.88 0 0 1-4.609 1.25Z"/></mask><path fill="#3758F9" d="m75.508 87.266-.88-.476-.002.003.882.473ZM62.07 101.289l.493.87.002-.001-.495-.869Zm-38.203-.039.496-.868-.496.868ZM10.47 87.227l-.882.472.882-.472Zm0-44.493.881.473-.881-.473ZM23.867 28.75l.493.87.003-.002-.496-.868Zm38.203 0-.496.868.005.003.491-.871Zm13.438 13.984-.882.473.002.003.88-.476Zm-14.727 7.97-.919.394.003.005.916-.4Zm-7.07-8.829-.55.835.55-.835Zm-21.406 0 .55.835-.55-.835Zm-7.11 8.828-.916-.4-.003.006.92.394Zm0 28.594-.919.395.003.005.916-.4Zm7.11 8.828.55-.835-.55.835Zm21.406 0-.55-.835.55.835Zm7.07-8.828-.916-.4-.003.005.92.395ZM79.47 65c0 8.6-1.63 15.849-4.84 21.79l1.759.951c3.403-6.298 5.08-13.892 5.08-22.741h-2Zm-4.843 21.793c-3.198 5.965-7.547 10.497-13.05 13.627l.989 1.738c5.851-3.328 10.46-8.145 13.824-14.42l-1.763-.945ZM61.577 100.42c-5.488 3.111-11.67 4.675-18.57 4.675v2c7.216 0 13.742-1.639 19.556-4.935l-.986-1.74Zm-18.57 4.675c-6.951 0-13.157-1.577-18.644-4.712l-.992 1.736c5.816 3.324 12.37 4.976 19.637 4.976v-2Zm-18.644-4.712c-5.477-3.13-9.814-7.662-13.013-13.628l-1.763.945c3.364 6.274 7.959 11.09 13.784 14.419l.992-1.736ZM11.35 86.754C8.164 80.812 6.547 73.574 6.547 65h-2c0 8.822 1.664 16.402 5.04 22.7l1.763-.946ZM6.547 65c0-8.6 1.617-15.851 4.803-21.793l-1.763-.945C6.211 48.559 4.547 56.152 4.547 65h2Zm4.803-21.793c3.199-5.965 7.535-10.484 13.01-13.587l-.986-1.74c-5.827 3.303-10.422 8.108-13.787 14.382l1.763.945Zm13.013-13.589c5.486-3.135 11.693-4.712 18.645-4.712v-2c-7.267 0-13.821 1.652-19.637 4.976l.992 1.736Zm18.645-4.712c6.898 0 13.079 1.577 18.566 4.712l.992-1.736c-5.814-3.323-12.342-4.976-19.558-4.976v2Zm18.57 4.715c5.502 3.104 9.85 7.622 13.048 13.586l1.763-.945c-3.365-6.276-7.974-11.08-13.827-14.383l-.983 1.742Zm13.05 13.589c3.21 5.941 4.84 13.19 4.84 21.79h2c0-8.849-1.677-16.443-5.08-22.741l-1.76.95ZM64.32 65c0-5.745-.86-10.656-2.622-14.697l-1.833.8c1.622 3.72 2.455 8.34 2.455 13.897h2ZM61.7 50.309c-1.731-4.031-4.204-7.14-7.44-9.27l-1.099 1.671c2.859 1.882 5.1 4.658 6.701 8.388l1.838-.79Zm-7.44-9.27c-3.229-2.125-6.993-3.172-11.252-3.172v2c3.917 0 7.289.958 10.153 2.843l1.1-1.67Zm-11.252-3.172c-4.26 0-8.024 1.047-11.253 3.173l1.1 1.67c2.864-1.885 6.235-2.843 10.153-2.843v-2ZM31.755 41.04c-3.233 2.128-5.719 5.235-7.476 9.263l1.833.8c1.628-3.732 3.882-6.51 6.742-8.393l-1.1-1.67Zm-7.479 9.269c-1.735 4.039-2.58 8.948-2.58 14.691h2c0-5.559.82-10.181 2.418-13.902l-1.838-.79ZM21.697 65c0 5.743.845 10.652 2.58 14.692l1.838-.79c-1.598-3.72-2.419-8.343-2.419-13.902h-2Zm2.583 14.697c1.757 4.028 4.242 7.135 7.476 9.263l1.1-1.67c-2.86-1.883-5.115-4.661-6.743-8.393l-1.833.8Zm7.476 9.263c3.23 2.126 6.993 3.173 11.253 3.173v-2c-3.918 0-7.29-.958-10.154-2.843l-1.1 1.67Zm11.253 3.173c4.26 0 8.023-1.047 11.253-3.173l-1.1-1.67c-2.864 1.885-6.236 2.843-10.153 2.843v2ZM54.26 88.96c3.235-2.129 5.708-5.237 7.44-9.268l-1.839-.79c-1.602 3.73-3.842 6.506-6.7 8.388l1.099 1.67Zm7.437-9.263C63.46 75.656 64.32 70.745 64.32 65h-2c0 5.557-.833 10.178-2.455 13.897l1.833.8ZM92.686 127.5h-1v1h1v-1Zm0-82.5v-1h-1v1h1Zm16.406 0h1v-1h-1v1Zm0 10.078h-1v1h1v-1Zm.742 0v1h.646l.265-.588-.911-.412Zm3.164-4.922-.769-.639-.001.001.77.638Zm5.469-4.218.447.894.004-.002-.451-.892Zm20.547 1.718-.527.85.004.003.523-.853Zm8.867 10.274-.901.435.001.002.9-.437Zm.078 34.101-.905-.424-.001.002.906.422Zm-8.75 10.43.538.843.002-.001-.54-.842Zm-20.586 1.914-.43.903.004.002.426-.905Zm-5.508-4.023-.753.657.005.006.748-.663Zm-3.281-4.961.911-.413-.266-.587h-.645v1Zm-.508 0v-1h-1v1h1Zm0 32.109v1h1v-1h-1Zm5.43-36.953-.621.784.007.005.614-.79Zm13.711-.04.621.785.006-.005-.627-.78Zm4.258-6.25-.939-.345-.001.005.94.34Zm.039-18.398.939-.344-.939.344Zm-4.258-6.171.621-.785-.621.785Zm-13.789-.079-.607-.794-.006.004.613.79Zm-4.258 6.094-.936-.352.936.352ZM93.686 127.5V45h-2v82.5h2Zm-1-81.5h16.406v-2H92.686v2Zm15.406-1v10.078h2V45h-2Zm1 11.078h.742v-2h-.742v2Zm1.653-.588c.686-1.518 1.688-3.083 3.023-4.696l-1.54-1.276c-1.425 1.721-2.532 3.437-3.305 5.148l1.822.824Zm3.022-4.695c1.307-1.572 3.014-2.897 5.147-3.963l-.894-1.789c-2.347 1.173-4.285 2.661-5.791 4.474l1.538 1.278Zm5.151-3.965c2.088-1.056 4.735-1.611 7.986-1.611v-2c-3.467 0-6.445.59-8.889 1.826l.903 1.785Zm7.986-1.611c4.19 0 8.044 1.094 11.583 3.287l1.053-1.7c-3.857-2.39-8.076-3.587-12.636-3.587v2Zm11.587 3.29c3.508 2.15 6.344 5.414 8.489 9.856l1.801-.87c-2.282-4.726-5.357-8.31-9.245-10.691l-1.045 1.705Zm8.49 9.858c2.129 4.381 3.22 9.936 3.22 16.711h2c0-6.975-1.122-12.852-3.421-17.585l-1.799.874Zm3.22 16.711c0 6.59-1.065 12.087-3.147 16.529l1.81.849c2.241-4.777 3.337-10.583 3.337-17.378h-2Zm-3.148 16.53c-2.068 4.439-4.868 7.758-8.384 10.011l1.08 1.684c3.88-2.487 6.913-6.12 9.116-10.85l-1.812-.844Zm-8.382 10.01c-3.504 2.236-7.43 3.359-11.806 3.359v2c4.739 0 9.042-1.222 12.882-3.673l-1.076-1.686Zm-11.806 3.359c-3.123 0-5.716-.517-7.816-1.507l-.852 1.81c2.431 1.146 5.333 1.697 8.668 1.697v-2Zm-7.812-1.505c-2.136-1.018-3.859-2.283-5.19-3.784l-1.496 1.327c1.534 1.729 3.483 3.146 5.826 4.263l.86-1.806Zm-5.184-3.778c-1.38-1.58-2.416-3.153-3.124-4.716l-1.822.825c.802 1.77 1.954 3.506 3.439 5.206l1.507-1.315Zm-4.035-5.303h-.508v2h.508v-2Zm-1.508 1V127.5h2V95.39h-2Zm1 31.109h-16.64v2h16.64v-2ZM107.975 75c0 3.657.507 6.892 1.547 9.685l1.874-.698c-.939-2.52-1.421-5.509-1.421-8.987h-2Zm1.547 9.685c1.041 2.795 2.57 5.029 4.613 6.646l1.242-1.568c-1.708-1.352-3.043-3.26-3.981-5.776l-1.874.698Zm4.62 6.651c2.073 1.613 4.575 2.398 7.45 2.398v-2c-2.49 0-4.545-.672-6.222-1.977l-1.228 1.58Zm7.45 2.398c2.902 0 5.421-.8 7.495-2.442l-1.241-1.568c-1.675 1.326-3.74 2.01-6.254 2.01v2Zm7.502-2.447c2.04-1.644 3.556-3.89 4.571-6.688l-1.88-.682c-.913 2.514-2.236 4.435-3.946 5.812l1.255 1.558Zm4.569-6.683c1.038-2.815 1.546-6.022 1.546-9.604h-2c0 3.397-.482 6.362-1.423 8.912l1.877.692ZM135.209 75c0-3.554-.494-6.722-1.506-9.485l-1.878.688c.915 2.498 1.384 5.424 1.384 8.797h2Zm-1.506-9.485c-1.016-2.773-2.534-4.994-4.576-6.611l-1.242 1.567c1.707 1.352 3.029 3.245 3.94 5.732l1.878-.688Zm-4.576-6.611c-2.077-1.645-4.609-2.443-7.535-2.443v2c2.543 0 4.62.686 6.293 2.01l1.242-1.567Zm-7.535-2.443c-2.894 0-5.408.769-7.482 2.354l1.214 1.589c1.675-1.28 3.745-1.943 6.268-1.943v-2Zm-7.488 2.358c-2.022 1.566-3.539 3.764-4.581 6.532l1.872.704c.938-2.492 2.259-4.357 3.934-5.655l-1.225-1.581Zm-4.581 6.532c-1.042 2.769-1.548 5.992-1.548 9.649h2c0-3.478.482-6.453 1.42-8.945l-1.872-.704Zm52.772 62.149h-1v1h1v-1Zm0-82.5v-1h-1v1h1Zm16.406 0h1v-1h-1v1Zm0 10.078h-1v1h1v-1Zm.742 0v1h.646l.266-.588-.912-.412Zm3.164-4.922-.769-.639-.001.001.77.638Zm5.469-4.218.447.894.004-.002-.451-.892Zm20.547 1.718-.527.85.005.003.522-.853Zm8.867 10.274-.9.435.001.002.899-.437Zm.078 34.101-.905-.424-.001.002.906.422Zm-8.75 10.43.538.843.002-.001-.54-.842Zm-20.586 1.914-.43.903.004.002.426-.905Zm-5.507-4.023-.754.657.006.006.748-.663Zm-3.282-4.961.911-.413-.266-.587h-.645v1Zm-.507 0v-1h-1v1h1Zm0 32.109v1h1v-1h-1Zm5.429-36.953-.62.784.006.005.614-.79Zm13.711-.04.621.785.007-.005-.628-.78Zm4.258-6.25-.938-.345-.002.005.94.34Zm.039-18.398.939-.344-.939.344Zm-4.258-6.171.621-.785-.621.785Zm-13.789-.079-.607-.794-.005.004.612.79Zm-4.258 6.094-.936-.352.936.352ZM163.295 127.5V45h-2v82.5h2Zm-1-81.5h16.406v-2h-16.406v2Zm15.406-1v10.078h2V45h-2Zm1 11.078h.742v-2h-.742v2Zm1.654-.588c.685-1.518 1.687-3.083 3.023-4.696l-1.541-1.276c-1.425 1.721-2.532 3.437-3.305 5.148l1.823.824Zm3.022-4.695c1.306-1.572 3.014-2.897 5.146-3.963l-.894-1.789c-2.346 1.173-4.285 2.661-5.791 4.474l1.539 1.278Zm5.15-3.965c2.088-1.056 4.735-1.611 7.987-1.611v-2c-3.468 0-6.446.59-8.889 1.826l.902 1.785Zm7.987-1.611c4.19 0 8.044 1.094 11.582 3.287l1.054-1.7c-3.857-2.39-8.076-3.587-12.636-3.587v2Zm11.587 3.29c3.507 2.15 6.344 5.414 8.489 9.856l1.801-.87c-2.282-4.726-5.357-8.31-9.246-10.691l-1.044 1.705Zm8.49 9.858c2.128 4.381 3.22 9.936 3.22 16.711h2c0-6.975-1.122-12.852-3.421-17.585l-1.799.874Zm3.22 16.711c0 6.59-1.065 12.087-3.148 16.529l1.811.849c2.24-4.777 3.337-10.583 3.337-17.378h-2Zm-3.149 16.53c-2.068 4.439-4.868 7.758-8.383 10.011l1.079 1.684c3.88-2.487 6.914-6.12 9.117-10.85l-1.813-.844Zm-8.382 10.01c-3.503 2.236-7.429 3.359-11.805 3.359v2c4.738 0 9.041-1.222 12.881-3.673l-1.076-1.686Zm-11.805 3.359c-3.123 0-5.717-.517-7.816-1.507l-.853 1.81c2.432 1.146 5.333 1.697 8.669 1.697v-2Zm-7.812-1.505c-2.137-1.018-3.859-2.283-5.19-3.784l-1.496 1.327c1.533 1.729 3.483 3.146 5.825 4.263l.861-1.806Zm-5.185-3.778c-1.38-1.58-2.416-3.153-3.124-4.716l-1.821.825c.802 1.77 1.954 3.506 3.438 5.206l1.507-1.315Zm-4.035-5.303h-.507v2h.507v-2Zm-1.507 1V127.5h2V95.39h-2Zm1 31.109h-16.641v2h16.641v-2ZM177.584 75c0 3.657.507 6.892 1.547 9.685l1.874-.698c-.938-2.52-1.421-5.509-1.421-8.987h-2Zm1.547 9.685c1.042 2.795 2.571 5.029 4.614 6.646l1.241-1.568c-1.707-1.352-3.043-3.26-3.981-5.776l-1.874.698Zm4.62 6.651c2.073 1.613 4.576 2.398 7.45 2.398v-2c-2.49 0-4.545-.672-6.222-1.977l-1.228 1.58Zm7.45 2.398c2.902 0 5.421-.8 7.496-2.442l-1.242-1.568c-1.675 1.326-3.739 2.01-6.254 2.01v2Zm7.503-2.447c2.04-1.644 3.555-3.89 4.57-6.688l-1.88-.682c-.912 2.514-2.236 4.435-3.945 5.812l1.255 1.558Zm4.568-6.683c1.039-2.815 1.546-6.022 1.546-9.604h-2c0 3.397-.481 6.362-1.422 8.912l1.876.692ZM204.818 75c0-3.554-.494-6.722-1.506-9.485l-1.878.688c.915 2.498 1.384 5.424 1.384 8.797h2Zm-1.506-9.485c-1.016-2.773-2.533-4.994-4.576-6.611l-1.241 1.567c1.707 1.352 3.028 3.245 3.939 5.732l1.878-.688Zm-4.576-6.611c-2.077-1.645-4.609-2.443-7.535-2.443v2c2.543 0 4.62.686 6.294 2.01l1.241-1.567Zm-7.535-2.443c-2.894 0-5.407.769-7.482 2.354l1.214 1.589c1.676-1.28 3.745-1.943 6.268-1.943v-2Zm-7.487 2.358c-2.023 1.566-3.54 3.764-4.582 6.532l1.872.704c.938-2.492 2.259-4.357 3.935-5.655l-1.225-1.581Zm-4.582 6.532c-1.041 2.769-1.548 5.992-1.548 9.649h2c0-3.478.483-6.453 1.42-8.945l-1.872-.704Zm102.694-3.242.062.998 1.07-.065-.14-1.064-.992.131Zm-15.234.938-.981.196.171.856.871-.054-.061-.998Zm-1.68-3.516-.779.627.008.01.771-.637Zm-3.398-2.539-.427.905.01.004.011.005.406-.914Zm-11.485.664.517.857.009-.006-.526-.85Zm-.937 7.93-.654.757.654-.757Zm5.898 2.383-.21.978.013.002.197-.98Zm10.86 2.187.201-.98h-.004l-.197.98Zm13.046 5.781-.679.734.679-.734Zm.821 20.82-.788-.615-.004.005.792.61Zm-9.453 6.954.38.925.003-.002-.383-.923Zm-32.774-2.5-.579.815.005.004.574-.819Zm-8.242-13.594-.052-.998-1.09.057.152 1.08.99-.139Zm16.367-.86.98-.2-.172-.843-.86.045.052.999Zm3.594 5.548-.557.83.008.005.549-.835Zm14.336.195.534.845.004-.002-.538-.843Zm2.734-4.414 1 .014v-.031l-1 .017Zm-1.914-3.711-.621.784.011.008.61-.792Zm-5.781-2.266.196-.98h-.001l-.195.98Zm-10.391-2.07-.196.98h.001l.195-.98Zm-13.086-6.094-.713.701.003.003.71-.704Zm-1.132-21.015-.798-.604-.003.005.801.599Zm8.867-6.446-.367-.93-.002.001.369.93Zm31.328 2.54-.593.805.002.001.591-.807Zm7.595 12.087-15.235.938.123 1.996 15.235-.938-.123-1.996Zm-14.193 1.74a8.866 8.866 0 0 0-1.889-3.956l-1.542 1.273a6.872 6.872 0 0 1 1.47 3.075l1.961-.392Zm-1.881-3.947c-.971-1.206-2.238-2.144-3.771-2.826l-.812 1.828c1.279.568 2.277 1.323 3.025 2.252l1.558-1.254Zm-3.751-2.816c-1.544-.729-3.35-1.072-5.387-1.072v2c1.817 0 3.318.307 4.534.88l.853-1.808Zm-5.387-1.072c-2.72 0-5.087.577-7.049 1.79l1.051 1.701c1.579-.975 3.561-1.491 5.998-1.491v-2Zm-7.04 1.784c-2.017 1.216-3.14 2.947-3.14 5.153h2c0-1.388.648-2.521 2.173-3.44l-1.033-1.713Zm-3.14 5.153c0 1.741.714 3.223 2.065 4.39l1.307-1.514c-.94-.812-1.372-1.753-1.372-2.876h-2Zm2.065 4.39c1.342 1.158 3.513 1.995 6.342 2.603l.42-1.955c-2.743-.59-4.505-1.341-5.455-2.162l-1.307 1.514Zm6.355 2.606 10.859 2.188.395-1.961-10.859-2.188-.395 1.961Zm10.855 2.187c5.741 1.179 9.891 3.052 12.569 5.535l1.359-1.467c-3.051-2.83-7.6-4.81-13.525-6.027l-.403 1.959Zm12.569 5.535c2.637 2.445 3.976 5.658 3.976 9.735h2c0-4.568-1.525-8.335-4.617-11.202l-1.359 1.467Zm3.976 9.735c0 3.72-1.09 6.952-3.264 9.736l1.576 1.231c2.461-3.153 3.688-6.822 3.688-10.967h-2Zm-3.268 9.74c-2.169 2.811-5.17 5.031-9.045 6.642l.767 1.846c4.146-1.722 7.448-4.138 9.861-7.265l-1.583-1.222Zm-9.042 6.64c-3.841 1.582-8.304 2.386-13.408 2.386v2c5.312 0 10.042-.837 14.169-2.536l-.761-1.85Zm-13.408 2.386c-7.813 0-13.918-1.628-18.41-4.78l-1.149 1.638c4.935 3.462 11.486 5.142 19.559 5.142v-2Zm-18.405-4.776c-4.462-3.173-7.063-7.46-7.832-12.918l-1.98.279c.845 6 3.74 10.775 8.653 14.269l1.159-1.63Zm-8.77-11.78 16.368-.86-.105-1.997-16.367.86.104 1.997Zm15.335-1.658c.543 2.657 1.879 4.742 4.017 6.177l1.114-1.66c-1.664-1.118-2.724-2.73-3.171-4.917l-1.96.4Zm4.025 6.182c2.107 1.386 4.748 2.04 7.854 2.04v-2c-2.833 0-5.061-.596-6.756-1.71l-1.098 1.67Zm7.854 2.04c3.034 0 5.584-.582 7.565-1.835l-1.069-1.69c-1.559.986-3.698 1.525-6.496 1.525v2Zm7.569-1.837c2.019-1.288 3.164-3.043 3.196-5.243l-2-.029c-.02 1.395-.698 2.582-2.272 3.586l1.076 1.686Zm3.196-5.274c-.031-1.83-.825-3.347-2.303-4.486l-1.221 1.584c1.021.787 1.504 1.745 1.524 2.936l2-.034Zm-2.293-4.478c-1.431-1.132-3.537-1.928-6.206-2.462l-.392 1.961c2.54.508 4.287 1.222 5.357 2.069l1.241-1.568Zm-6.207-2.462-10.39-2.07-.391 1.96 10.391 2.071.39-1.961Zm-10.39-2.07c-5.75-1.15-9.898-3.12-12.571-5.818l-1.421 1.408c3.056 3.084 7.632 5.177 13.6 6.37l.392-1.96Zm-12.568-5.814c-2.635-2.683-3.971-6.107-3.971-10.354h-2c0 4.71 1.502 8.657 4.544 11.755l1.427-1.401ZM231.85 62.89c0-3.663.985-6.768 2.926-9.362l-1.602-1.198c-2.227 2.978-3.324 6.514-3.324 10.56h2Zm2.922-9.358c1.981-2.617 4.777-4.665 8.439-6.12l-.738-1.858c-3.943 1.566-7.058 3.816-9.296 6.771l1.595 1.207Zm8.437-6.118c3.686-1.455 8.036-2.196 13.07-2.196v-2c-5.226 0-9.834.769-13.804 2.335l.734 1.86Zm13.07-2.196c7.449 0 13.178 1.575 17.298 4.61l1.186-1.61c-4.578-3.372-10.776-5-18.484-5v2Zm17.3 4.611c4.148 3.037 6.561 7.152 7.256 12.41l1.983-.262c-.764-5.783-3.456-10.392-8.057-13.761l-1.182 1.613ZM313.555 25l.999.027.028-1.027h-1.027v1Zm-1.524 56.016v1h.973l.027-.973-1-.027Zm-14.297 0-.999.027.027.973h.972v-1ZM296.172 25v-1h-1.028l.028 1.028 1-.028Zm2.07 78.281-.707.707.005.005.702-.712Zm-2.734-6.64 1 .01v-.02l-1 .01Zm2.734-6.563.702.712-.702-.712Zm13.164 0-.697.717.697-.717Zm2.852 6.563 1 .015v-.026l-1 .01Zm-1.367 4.726-.851-.526-.003.005.854.521Zm-3.399 3.399.51.86.012-.007-.522-.853Zm3.063-79.793-1.523 56.015 1.999.055 1.523-56.016-1.999-.054Zm-.524 55.043h-14.297v2h14.297v-2Zm-13.297.972-1.563-56.016-1.999.056 1.563 56.015 1.999-.055ZM296.172 26h17.383v-2h-17.383v2Zm8.711 79.016c-2.313 0-4.275-.807-5.939-2.447l-1.404 1.424c2.035 2.006 4.5 3.023 7.343 3.023v-2Zm-5.934-2.442c-1.662-1.662-2.465-3.618-2.441-5.923l-2-.02c-.029 2.85.991 5.321 3.027 7.357l1.414-1.414Zm-2.441-5.944c-.023-2.275.777-4.203 2.436-5.84l-1.404-1.424c-2.038 2.01-3.061 4.456-3.032 7.285l2-.02Zm2.436-5.84c1.664-1.64 3.626-2.446 5.939-2.446v-2c-2.843 0-5.308 1.016-7.343 3.022l1.404 1.424Zm5.939-2.446c2.197 0 4.126.798 5.826 2.451l1.394-1.434c-2.05-1.993-4.47-3.017-7.22-3.017v2Zm5.826 2.451c1.689 1.642 2.526 3.578 2.549 5.856l2-.02c-.029-2.826-1.094-5.266-3.155-7.27l-1.394 1.434Zm2.549 5.83a8.084 8.084 0 0 1-1.218 4.216l1.701 1.052c.983-1.589 1.488-3.342 1.517-5.237l-2-.03Zm-1.221 4.221a9.084 9.084 0 0 1-3.066 3.066l1.043 1.707a11.108 11.108 0 0 0 3.73-3.73l-1.707-1.043Zm-3.055 3.059a7.875 7.875 0 0 1-4.099 1.111v2a9.876 9.876 0 0 0 5.119-1.39l-1.02-1.721Z" mask="url(#a)"/><path fill="#3758F9" d="M84.469 67c0 8.724-1.654 16.146-4.961 22.266-3.281 6.12-7.76 10.794-13.438 14.023-5.65 3.203-12.005 4.805-19.062 4.805-7.11 0-13.49-1.615-19.14-4.844-5.652-3.229-10.118-7.904-13.4-14.023-3.28-6.12-4.921-13.53-4.921-22.227 0-8.724 1.64-16.146 4.922-22.266 3.281-6.12 7.747-10.78 13.398-13.984 5.651-3.23 12.031-4.844 19.14-4.844 7.058 0 13.412 1.615 19.063 4.844 5.677 3.203 10.157 7.865 13.438 13.984 3.307 6.12 4.96 13.542 4.96 22.266ZM67.32 67c0-5.651-.846-10.417-2.539-14.297-1.666-3.88-4.023-6.823-7.07-8.828-3.047-2.005-6.615-3.008-10.703-3.008-4.089 0-7.656 1.003-10.703 3.008-3.047 2.005-5.417 4.948-7.11 8.828-1.666 3.88-2.5 8.646-2.5 14.297s.834 10.417 2.5 14.297c1.693 3.88 4.063 6.823 7.11 8.828 3.047 2.005 6.614 3.008 10.703 3.008 4.088 0 7.656-1.003 10.703-3.008 3.047-2.005 5.404-4.948 7.07-8.828 1.693-3.88 2.54-8.646 2.54-14.297Zm29.366 62.5V47h16.406v10.078h.742c.729-1.614 1.784-3.255 3.164-4.922 1.406-1.692 3.229-3.099 5.469-4.218 2.265-1.146 5.078-1.72 8.437-1.72 4.375 0 8.412 1.147 12.11 3.438 3.698 2.266 6.653 5.69 8.867 10.274 2.213 4.557 3.32 10.273 3.32 17.148 0 6.693-1.081 12.344-3.242 16.953-2.135 4.584-5.052 8.06-8.75 10.43-3.672 2.344-7.786 3.516-12.344 3.516-3.229 0-5.976-.534-8.242-1.602-2.24-1.068-4.075-2.409-5.508-4.023-1.432-1.641-2.526-3.295-3.281-4.961h-.508V129.5h-16.64ZM112.975 77c0 3.568.494 6.68 1.484 9.336.99 2.656 2.422 4.727 4.297 6.21 1.875 1.46 4.154 2.188 6.836 2.188 2.708 0 5-.742 6.875-2.226 1.875-1.51 3.294-3.594 4.258-6.25.989-2.682 1.484-5.768 1.484-9.258 0-3.463-.482-6.51-1.445-9.14-.964-2.63-2.383-4.688-4.258-6.172-1.875-1.485-4.18-2.227-6.914-2.227-2.709 0-5 .716-6.875 2.148-1.849 1.433-3.268 3.464-4.258 6.094-.99 2.63-1.484 5.73-1.484 9.297Zm53.32 52.5V47h16.406v10.078h.742c.73-1.614 1.784-3.255 3.164-4.922 1.407-1.692 3.23-3.099 5.469-4.218 2.266-1.146 5.078-1.72 8.438-1.72 4.375 0 8.411 1.147 12.109 3.438 3.698 2.266 6.654 5.69 8.867 10.274 2.214 4.557 3.321 10.273 3.321 17.148 0 6.693-1.081 12.344-3.243 16.953-2.135 4.584-5.052 8.06-8.75 10.43-3.672 2.344-7.786 3.516-12.343 3.516-3.23 0-5.977-.534-8.243-1.602-2.239-1.068-4.075-2.409-5.507-4.023-1.433-1.641-2.526-3.295-3.282-4.961h-.507V129.5h-16.641ZM182.584 77c0 3.568.495 6.68 1.484 9.336.99 2.656 2.422 4.727 4.297 6.21 1.875 1.46 4.154 2.188 6.836 2.188 2.709 0 5-.742 6.875-2.226 1.875-1.51 3.294-3.594 4.258-6.25.99-2.682 1.484-5.768 1.484-9.258 0-3.463-.481-6.51-1.445-9.14-.963-2.63-2.383-4.688-4.258-6.172-1.875-1.485-4.179-2.227-6.914-2.227-2.708 0-5 .716-6.875 2.148-1.849 1.433-3.268 3.464-4.258 6.094-.989 2.63-1.484 5.73-1.484 9.297Zm103.242-12.89-15.234.937a7.886 7.886 0 0 0-1.68-3.516c-.859-1.067-1.992-1.914-3.398-2.539-1.381-.65-3.034-.976-4.961-.976-2.578 0-4.753.547-6.524 1.64-1.771 1.068-2.656 2.5-2.656 4.297 0 1.432.573 2.643 1.719 3.633 1.146.99 3.112 1.784 5.898 2.383l10.86 2.187c5.833 1.198 10.182 3.125 13.046 5.781 2.865 2.657 4.297 6.146 4.297 10.47 0 3.931-1.158 7.382-3.476 10.35-2.292 2.97-5.443 5.287-9.453 6.954-3.985 1.641-8.581 2.461-13.789 2.461-7.943 0-14.271-1.654-18.985-4.961-4.687-3.333-7.435-7.865-8.242-13.594l16.367-.86c.495 2.423 1.693 4.272 3.594 5.548 1.901 1.25 4.336 1.875 7.305 1.875 2.916 0 5.26-.56 7.031-1.68 1.797-1.146 2.708-2.617 2.734-4.414-.026-1.51-.664-2.748-1.914-3.711-1.25-.99-3.177-1.745-5.781-2.266l-10.391-2.07c-5.859-1.172-10.221-3.203-13.086-6.094-2.838-2.89-4.257-6.575-4.257-11.054 0-3.855 1.041-7.175 3.125-9.961 2.109-2.787 5.065-4.935 8.867-6.446 3.828-1.51 8.307-2.265 13.437-2.265 7.578 0 13.542 1.601 17.891 4.804 4.375 3.204 6.927 7.566 7.656 13.086ZM317.555 27l-1.524 56.016h-14.297L300.172 27h17.383Zm-8.672 81.016c-2.578 0-4.792-.912-6.641-2.735-1.849-1.849-2.76-4.062-2.734-6.64-.026-2.553.885-4.74 2.734-6.563 1.849-1.823 4.063-2.734 6.641-2.734 2.474 0 4.648.911 6.523 2.734s2.826 4.01 2.852 6.563c-.026 1.718-.482 3.294-1.367 4.726a10.12 10.12 0 0 1-3.399 3.399 8.88 8.88 0 0 1-4.609 1.25Z"/></svg>